HIERARCHY
ROOT Hips
{
	OFFSET -3.958830 18.904000 13.208200
	CHANNELS 6 Xposition Yposition Zposition Zrotation Yrotation Xrotation 
	JOINT LHipJoint
	{
		OFFSET 0.000000 0.000000 0.000000
		CHANNELS 3 Zrotation Yrotation Xrotation
		JOINT LeftUpLeg
		{
			OFFSET 1.800000 -1.400000 0.085000
			CHANNELS 3 Zrotation Yrotation Xrotation
			JOINT LeftLeg
			{
				OFFSET 2.215000 -6.000000 0.000000
				CHANNELS 3 Zrotation Yrotation Xrotation
				JOINT LeftFoot
				{
					OFFSET 2.500000 -6.900000 0.000000
					CHANNELS 3 Zrotation Yrotation Xrotation
					JOINT LeftToeBase
					{
						OFFSET 0.200000 -0.500000 1.950000
						CHANNELS 3 Zrotation Yrotation Xrotation
						End Site
						{
							OFFSET 0.000000 0.000000 0.000000
						}
					}
				}
			}
		}
	}
	JOINT RHipJoint
	{
		OFFSET 0.000000 0.000000 0.000000
		CHANNELS 3 Zrotation Yrotation Xrotation
		JOINT RightUpLeg
		{
			OFFSET -1.800000 -1.400000 0.085000
			CHANNELS 3 Zrotation Yrotation Xrotation
			JOINT RightLeg
			{
				OFFSET -2.215000 -6.000000 0.000000
				CHANNELS 3 Zrotation Yrotation Xrotation
				JOINT RightFoot
				{
					OFFSET -2.500000 -6.900000 0.000000
					CHANNELS 3 Zrotation Yrotation Xrotation
					JOINT RightToeBase
					{
						OFFSET -0.200000 -0.500000 1.950000
						CHANNELS 3 Zrotation Yrotation Xrotation
						End Site
						{
							OFFSET 0.000000 0.000000 0.000000
						}
					}
				}
			}
		}
	}
	JOINT LowerBack
	{
		OFFSET 0.000000 0.000000 0.000000
		CHANNELS 3 Zrotation Yrotation Xrotation
		JOINT Spine
		{
			OFFSET -0.087000 1.940000 -0.288900
			CHANNELS 3 Zrotation Yrotation Xrotation
			JOINT Spine1
			{
				OFFSET 0.000000 1.950000 0.060000
				CHANNELS 3 Zrotation Yrotation Xrotation
				JOINT Neck
				{
					OFFSET 0.000000 0.000000 0.000000
					CHANNELS 3 Zrotation Yrotation Xrotation
					JOINT Neck1
					{
						OFFSET 0.000000 1.600000 0.340000
						CHANNELS 3 Zrotation Yrotation Xrotation
						JOINT Head
						{
							OFFSET 0.000000 1.667000 -0.240000
							CHANNELS 3 Zrotation Yrotation Xrotation
							End Site
							{
								OFFSET 0.000000 0.000000 0.000000
							}
						}
					}
				}
				JOINT LeftShoulder
				{
					OFFSET 0.000000 0.000000 0.000000
					CHANNELS 3 Zrotation Yrotation Xrotation
					JOINT LeftArm
					{
						OFFSET 2.700000 1.550000 -0.730000
						CHANNELS 3 Zrotation Yrotation Xrotation
						JOINT LeftForeArm
						{
							OFFSET 5.450000 0.000000 0.000000
							CHANNELS 3 Zrotation Yrotation Xrotation
							JOINT LeftHand
							{
								OFFSET 3.450000 0.000000 0.000000
								CHANNELS 3 Zrotation Yrotation Xrotation
								JOINT LeftHandIndex1
								{
									OFFSET 0.750000 0.000000 0.000000
									CHANNELS 3 Zrotation Yrotation Xrotation
									End Site
									{
										OFFSET 0.000000 0.000000 0.000000
									}
								}
							}
						}
					}
				}
				JOINT RightShoulder
				{
					OFFSET 0.000000 0.000000 0.000000
					CHANNELS 3 Zrotation Yrotation Xrotation
					JOINT RightArm
					{
						OFFSET -2.700000 1.550000 -0.730000
						CHANNELS 3 Zrotation Yrotation Xrotation
						JOINT RightForeArm
						{
							OFFSET -5.450000 0.000000 0.000000
							CHANNELS 3 Zrotation Yrotation Xrotation
							JOINT RightHand
							{
								OFFSET -3.450000 0.000000 0.000000
								CHANNELS 3 Zrotation Yrotation Xrotation
								JOINT RightHandIndex1
								{
									OFFSET -0.750000 0.000000 0.000000
									CHANNELS 3 Zrotation Yrotation Xrotation
									End Site
									{
										OFFSET 0.000000 0.000000 0.000000
									}
								}
							}
						}
					}
				}
			}
		}
	}
}
MOTION
Frames: 14
Frame Time: 0.016667
-1.404590 17.024170 -4.655450 -2.636034 0.452077 11.708484 -15.138096 12.078941 3.255202 0.045639 -3.584658 -27.074397 -4.769103 5.192731 14.576853 -1.070940 3.302790 3.420536 -0.730820 -1.238190 -0.342610 18.241050 -10.996924 3.604329 -6.043299 3.357671 -18.255922 17.427769 -4.398186 3.532499 0.412989 -3.342361 3.489253 -0.402000 0.492370 -0.359110 -3.611182 1.018698 -7.891262 1.272822 5.395462 12.623604 7.758790 5.994420 -3.664647 -2.311717 1.544789 -13.106972 3.979374 -3.056556 25.014007 -1.596830 -2.138560 1.646620 -15.491646 -6.204316 10.017156 -58.941373 25.141801 -17.586382 -66.471430 -23.097065 5.240557 -3.974512 2.751848 0.473520 0.242980 -0.704750 -0.336300 18.562668 10.976757 4.492412 47.706564 5.146364 -11.118666 -7.801902 31.034212 -3.081744 1.947023 -0.882147 -0.870910 0.420940 0.773390 -0.479560 
-1.384370 17.041180 -4.668860 -2.481513 1.156597 11.908691 -15.119992 12.053961 3.289118 -0.293102 -3.716030 -27.048995 -4.904974 5.093023 14.063726 -1.060676 3.249424 3.460818 -0.744590 -1.247720 -0.359020 18.257636 -10.977918 3.620913 -6.264056 3.392982 -18.505388 17.459428 -4.319753 3.271984 0.423159 -3.332511 3.502493 -0.408530 0.511070 -0.368360 -3.674764 1.011783 -7.935680 1.986617 5.100017 12.865325 7.410647 5.818699 -3.506660 -2.464179 1.209984 -13.314489 3.425209 -3.178221 24.652512 -1.818540 -2.416960 2.146910 -14.741513 -6.374964 10.228361 -58.357682 25.506668 -17.476018 -69.190733 -22.998041 5.612299 -3.965859 2.773003 0.455340 0.252400 -0.718150 -0.327250 18.037093 11.203440 4.689235 47.831193 4.831131 -11.127023 -8.553665 30.350669 -3.212881 1.956113 -0.883821 -0.873850 0.431970 0.772500 -0.467590 
-1.349620 17.063100 -4.679360 -2.270193 1.822201 12.419390 -15.089990 11.986805 3.317820 -0.583950 -3.852926 -26.831776 -5.516706 4.961441 12.821291 -1.063499 3.198824 3.506100 -0.751510 -1.252320 -0.379080 18.296017 -10.928331 3.639300 -6.699905 3.493360 -18.885695 17.664723 -4.203521 2.827092 0.437368 -3.358841 3.499077 -0.402180 0.544440 -0.364730 -3.786785 1.022431 -7.957749 3.074105 4.833245 12.705607 6.920467 5.649172 -3.061043 -2.656428 0.625205 -13.309584 2.484138 -3.380158 23.519773 -2.463990 -2.784780 2.683170 -13.684796 -6.130191 10.288223 -56.574149 25.988626 -16.770697 -73.552920 -22.170515 5.891872 -3.971564 2.829593 0.420740 0.281110 -0.746740 -0.314060 17.358908 11.076807 4.780064 47.536375 4.352382 -10.912416 -9.344168 29.073632 -3.269009 1.960223 -0.904535 -0.876200 0.438310 0.775640 -0.453410 
-1.306420 17.088180 -4.679740 -2.036512 2.565244 13.097905 -15.048632 11.890542 3.345736 -0.671676 -3.977211 -26.536857 -6.691155 4.897057 11.246797 -1.064060 3.191794 3.531272 -0.766700 -1.255820 -0.419080 18.352396 -10.847604 3.663386 -7.270217 3.560996 -19.103428 17.840529 -3.964040 1.824802 0.459794 -3.397547 3.495656 -0.388330 0.585760 -0.371660 -3.939782 1.024349 -7.979646 4.518237 4.521714 12.183322 6.137860 5.460317 -2.610048 -2.917332 -0.161878 -13.122667 1.242600 -3.765834 22.156151 -2.771420 -3.668560 3.194430 -12.476421 -5.590050 10.110627 -53.722349 26.136619 -15.437424 -78.065482 -20.071050 5.391213 -3.985870 2.890267 0.372590 0.314210 -0.790340 -0.305960 16.727542 10.642826 4.913529 47.206926 3.224911 -10.790899 -9.453596 27.988215 -3.175682 1.960423 -0.922211 -0.882030 0.449710 0.789200 -0.432840 
-1.254380 17.110940 -4.674620 -1.766164 3.094411 13.765574 -14.993754 11.779527 3.347163 -0.856737 -4.029781 -25.895769 -7.608055 4.659551 9.048143 -1.074964 3.171751 3.578550 -0.788250 -1.268410 -0.466260 18.427925 -10.761837 3.690122 -8.017302 3.658971 -19.369651 18.189149 -3.756148 0.901519 0.480565 -3.473503 3.477511 -0.371000 0.654600 -0.371750 -4.136577 1.055853 -7.975990 6.267285 4.269022 11.294902 4.987517 5.325261 -1.850174 -3.170721 -1.030496 -12.783314 -0.062779 -4.233870 20.772040 -3.067650 -4.766610 3.877310 -11.290925 -4.840237 9.813856 -50.127617 25.872564 -13.580154 -83.347989 -18.267014 5.241563 -4.014792 2.952486 0.318610 0.362920 -0.841200 -0.289830 16.175842 9.987982 5.023605 46.831379 1.877393 -10.729896 -8.991347 27.253039 -3.009710 1.951817 -0.936279 -0.897650 0.478650 0.808700 -0.403830 
-1.200550 17.135920 -4.669620 -1.364780 4.013062 14.321266 -14.945133 11.686517 3.354616 -0.952740 -4.027637 -25.005640 -8.853800 4.508176 6.952658 -1.070508 3.212978 3.589598 -0.785530 -1.259520 -0.492610 18.494789 -10.677073 3.702413 -8.753221 3.724666 -19.711939 18.385123 -3.587274 0.236828 0.493969 -3.526802 3.456456 -0.346470 0.689400 -0.375390 -4.313423 1.057566 -7.973348 7.977492 3.944362 10.527585 3.748166 5.160500 -1.251674 -3.393535 -1.782839 -12.449336 -1.160965 -4.855989 19.725789 -3.324490 -5.962260 4.339200 -10.385812 -4.012856 9.552362 -46.231671 25.676562 -11.657199 -88.971263 -17.530357 5.985693 -4.013001 3.042824 0.274040 0.388020 -0.879880 -0.275460 15.813595 9.218284 5.062130 46.535776 0.489423 -10.340043 -8.318184 25.345994 -2.670902 1.964715 -0.956633 -0.901090 0.490990 0.815220 -0.384350 
-1.148210 17.154830 -4.665610 -1.062153 4.782374 14.723660 -14.903532 11.652895 3.350273 -1.075834 -3.972733 -24.245623 -9.642481 4.402853 5.554641 -1.074206 3.286954 3.594770 -0.776650 -1.242620 -0.522570 18.556860 -10.617637 3.661618 -9.025545 3.723120 -20.210206 17.930303 -3.485974 0.118214 0.527827 -3.509455 3.468258 -0.310730 0.741380 -0.379830 -4.470887 0.983788 -7.912702 9.754758 3.567307 9.610245 2.707244 4.888794 -0.312840 -3.650049 -2.804648 -12.023851 -2.666598 -5.460945 18.717096 -3.525080 -7.358020 4.664900 -9.567616 -3.233706 9.150793 -42.717058 24.684699 -9.781144 -94.402221 -16.898125 6.859789 -4.023870 3.122730 0.227890 0.420920 -0.923390 -0.250900 15.716292 8.642072 5.115513 45.544751 -0.827278 -9.614154 -6.913567 22.550463 -2.151882 1.982795 -0.970064 -0.911430 0.521520 0.820560 -0.358790 
-1.104320 17.163780 -4.662640 -0.730332 5.266979 15.131327 -14.862304 11.632063 3.344898 -1.068263 -3.906129 -23.695007 -10.448522 4.388200 4.636295 -1.074301 3.391330 3.587319 -0.761840 -1.203890 -0.563940 18.622032 -10.604336 3.563311 -8.868917 3.606503 -20.671184 16.695352 -3.406303 0.343518 0.579515 -3.438821 3.501499 -0.258720 0.807250 -0.386080 -4.626664 0.936923 -7.795468 11.425836 3.199605 8.455936 1.478911 4.592387 0.801813 -3.953053 -3.804029 -11.524129 -4.075451 -5.771155 17.610338 -3.617700 -8.536370 5.011990 -8.796236 -2.501792 8.635745 -38.811757 22.865673 -7.572130 -99.737854 -16.779446 8.528519 -4.050846 3.219407 0.161060 0.465550 -0.976870 -0.220290 15.772625 8.083338 5.137270 44.573528 -1.978038 -8.917728 -5.053172 20.293105 -1.749218 1.990176 -0.997030 -0.918020 0.557950 0.826110 -0.323370 
-1.064080 17.174070 -4.658790 -0.526356 5.401013 15.235200 -14.823250 11.674710 3.343060 -1.076348 -3.767222 -22.965032 -10.958436 4.389620 4.002808 -1.074589 3.479672 3.575203 -0.767720 -1.198930 -0.612770 18.668712 -10.622162 3.472150 -8.594746 3.422694 -20.695279 15.324591 -3.346610 0.572480 0.626124 -3.349979 3.548901 -0.234890 0.856240 -0.404500 -4.749811 0.841934 -7.721522 13.198170 2.852295 7.855711 0.121828 4.518859 1.235653 -4.283677 -4.937298 -11.203349 -5.945735 -5.995288 17.535452 -3.168980 -9.940420 5.299810 -7.531772 -1.644727 8.064793 -35.494889 20.413707 -5.235188 -104.458607 -17.183363 11.248809 -4.050926 3.287994 0.131790 0.482020 -1.016100 -0.201010 15.312029 7.608477 5.389913 44.221691 -3.282970 -8.487366 -2.819545 18.495504 -1.358221 2.004757 -0.983392 -0.934220 0.595530 0.842960 -0.295320 
-1.023200 17.189240 -4.662480 -0.626838 5.355996 14.679952 -14.783065 11.831043 3.337253 -0.927703 -3.473547 -21.805293 -11.080634 4.424771 3.816455 -1.036010 3.501246 3.560415 -0.719780 -1.148190 -0.595710 18.693615 -10.682005 3.388583 -7.803907 3.193564 -20.324889 13.813027 -3.343042 1.143045 0.614793 -3.184302 3.607442 -0.227310 0.811490 -0.415890 -4.843328 0.638724 -7.703736 15.533434 2.147354 8.289569 -2.033418 4.371929 0.970320 -4.066025 -6.070705 -11.012884 -8.311994 -6.151449 18.938744 -2.251050 -11.161790 4.567430 -7.277938 -0.817655 7.523349 -32.105372 18.425852 -3.055369 -108.963281 -19.268032 16.465595 -3.978405 3.360898 0.163330 0.419580 -0.974760 -0.181020 14.652858 7.294264 5.692277 44.209151 -4.237162 -8.156167 0.035503 16.746199 -0.916733 2.057767 -0.946320 -0.905270 0.598100 0.812690 -0.281920 
-0.978670 17.186890 -4.658870 -1.034873 5.361694 14.155013 -14.735788 11.986979 3.330141 -0.520371 -3.149106 -20.760397 -11.127553 4.479901 3.749416 -1.020737 3.537365 3.530136 -0.675250 -1.105580 -0.571150 18.725107 -10.787410 3.290122 -6.372786 3.006848 -20.082139 11.806004 -3.344428 2.195946 0.619107 -2.974067 3.675395 -0.214150 0.762490 -0.426030 -4.954032 0.520677 -7.663178 18.322954 1.536159 8.718486 -4.433437 4.374967 0.002790 -3.825649 -6.945958 -10.607948 -10.293209 -6.211838 20.278677 -1.429370 -12.087490 3.779170 -7.271816 0.748699 6.664079 -28.648320 16.503312 -0.684558 -112.799604 -21.820988 23.193388 -3.923272 3.430701 0.198730 0.362050 -0.938130 -0.173530 14.048979 6.140804 5.761133 44.193060 -5.750330 -8.196485 2.744489 15.813386 -0.618488 2.092359 -0.914774 -0.886520 0.596180 0.791560 -0.281460 
-0.933820 17.180660 -4.658530 -1.439379 5.490836 13.189934 -14.704983 12.224818 3.331650 -0.110753 -2.806676 -19.580571 -10.998940 4.626570 4.253887 -1.011038 3.591496 3.485337 -0.638860 -1.077120 -0.542350 18.728374 -10.936913 3.146141 -4.753107 2.715866 -19.792236 9.061658 -3.463692 4.537703 0.624479 -2.741011 3.744563 -0.214610 0.704950 -0.431120 -5.003103 0.306121 -7.607143 20.866249 0.814616 9.628639 -6.503879 4.295458 -0.925758 -3.442908 -7.813679 -10.457434 -12.498579 -6.179737 21.988795 -0.465350 -12.896270 2.670400 -7.804743 1.666971 5.906409 -25.339871 14.715075 1.207856 -116.390353 -24.812647 30.818365 -3.881592 3.474323 0.257150 0.295330 -0.887480 -0.175370 13.761834 5.624612 6.085259 43.967686 -7.457944 -8.492042 4.927204 15.428055 -0.388301 2.116076 -0.870335 -0.870290 0.592400 0.777850 -0.287690 
-0.889150 17.154570 -4.656580 -1.854822 5.776969 12.241653 -14.682691 12.426785 3.330287 0.542398 -2.519024 -18.597846 -11.278888 4.901197 5.042554 -1.018245 3.744060 3.418441 -0.615910 -1.071530 -0.515880 18.733766 -11.080648 2.993125 -2.706581 2.546172 -19.985996 5.571289 -3.487602 7.996342 0.639921 -2.530466 3.803853 -0.210190 0.681710 -0.431580 -5.042256 0.138182 -7.511940 23.289738 -0.016629 10.374947 -8.458670 4.022619 -1.695701 -3.128295 -8.605857 -10.188870 -14.452149 -6.195193 23.074595 0.234810 -13.610440 1.537940 -8.297869 2.629044 5.000252 -22.716897 12.679835 2.734067 -119.651905 -27.750611 38.703900 -3.876381 3.488258 0.313200 0.254010 -0.853550 -0.174470 13.557750 4.932267 6.296191 43.989471 -9.206762 -9.010407 6.648437 15.592661 -0.236622 2.114498 -0.826854 -0.879410 0.613000 0.777150 -0.296960 
-0.850490 17.114830 -4.653000 -2.256154 6.114298 11.177450 -14.667140 12.601164 3.320837 1.157201 -2.254953 -17.623709 -11.512456 5.174517 5.870761 -1.005660 3.860720 3.359394 -0.576000 -1.032470 -0.485630 18.736437 -11.191572 2.895589 -0.340869 2.571925 -20.496061 1.466222 -3.259915 12.290223 0.626921 -2.423002 3.827382 -0.200000 0.639610 -0.431780 -5.067293 -0.003179 -7.446493 25.603248 -1.086308 11.482693 -10.714897 3.573544 -2.924958 -2.718692 -9.119281 -9.914551 -15.897772 -6.120750 24.039420 0.924880 -13.992750 0.268910 -9.096402 3.535445 4.054588 -19.932051 10.947233 3.994176 -122.957554 -30.944835 47.524430 -3.866915 3.510016 0.357040 0.211240 -0.812590 -0.171210 13.419575 4.092584 6.440364 44.512807 -11.024666 -9.679958 8.047430 16.044501 -0.120541 2.110063 -0.803468 -0.865360 0.613770 0.758140 -0.304230 
